<svg width="32" height="32" viewBox="0 0 32 32" fill="none" xmlns="http://www.w3.org/2000/svg">
<path d="M14.0156 2V4.03151C11.2951 4.25493 8.90877 4.92957 7.13944 6.01063C5.20657 7.19161 3.94913 8.90672 3.94913 11.0538C3.94913 12.9972 4.92009 14.4962 6.62891 15.5966C8.29688 16.6706 10.6957 17.3901 13.6875 17.8726C13.6884 17.8727 13.6894 17.8729 13.6904 17.873L14.0156 17.9281V23.5126C12.6393 23.3346 11.6442 22.9835 10.9496 22.5382C10.1459 22.0229 9.72043 21.368 9.55516 20.6228L9.42484 20.0352H8.82296H4H3.21767L3.25067 20.8168C3.34698 23.098 4.78137 24.8444 6.85319 26.0259C8.75522 27.1106 11.2608 27.7666 14.0156 27.9863V30V30.75H14.7656H17.3983H18.1483V30V27.9886C20.9089 27.7784 23.4157 27.1412 25.3001 26.0614C27.3599 24.881 28.75 23.1164 28.75 20.7852C28.75 18.7539 27.7306 17.2364 25.95 16.1378C24.2165 15.0683 21.7272 14.3672 18.6406 13.8701L18.1483 13.7847V8.52025C19.1946 8.68587 20.0558 8.9825 20.6979 9.38225C21.4833 9.87121 21.9256 10.4998 22.0387 11.2606L22.1337 11.9004H22.7805H27.6275H28.4166L28.3765 11.1123C28.2671 8.9618 26.9698 7.24089 25.0186 6.04656C23.231 4.95234 20.8508 4.26534 18.1483 4.03324V2V1.25H17.3983H14.7656H14.0156V2ZM18.3152 23.5806V18.326C19.7714 18.6639 20.6845 19.0327 21.2419 19.4334C21.5596 19.6618 21.7464 19.8903 21.8592 20.1193C21.9728 20.3501 22.0326 20.6252 22.0326 20.977C22.0326 21.642 21.7665 22.2159 21.1167 22.6773C20.5404 23.0866 19.6381 23.4213 18.3152 23.5806ZM10.9464 9.34197C11.56 8.95373 12.4682 8.62336 13.6848 8.44173V12.9944C12.3152 12.705 11.3948 12.3564 10.8097 11.9791C10.1486 11.5529 9.96739 11.1317 9.96739 10.701C9.96739 10.3076 10.2036 9.81195 10.9464 9.34197Z" fill="#28A745" stroke="black" stroke-width="1.5"/>
</svg>
